<svg width="110" height="26" viewBox="0 0 110 26" fill="none" xmlns="http://www.w3.org/2000/svg">
<path d="M12.2591 0C13.9853 0 15.6281 0.35542 17.1179 0.996778C19.0165 1.81415 19.1467 4.24558 17.7497 5.76503L14.0805 9.75598C13.0833 10.8407 11.3836 10.8904 10.3242 9.86588L8.19694 7.80875C7.31191 6.95289 5.8515 7.1734 5.26084 8.25209C4.86685 8.97163 4.99281 9.86336 5.57084 10.4467L9.53168 14.4435C11.0135 15.9389 13.4517 15.8889 14.8705 14.334L19.404 9.36563C21.0463 7.56589 23.9866 7.88937 24.3675 10.2917C24.4667 10.9172 24.5182 11.5585 24.5182 12.2118C24.5182 17.98 18.703 19.5619 14.3239 24.9433C13.3276 26.1675 11.2078 26.1575 10.2164 24.9293C5.88175 19.5592 0 17.975 0 12.2118C2.83102e-05 5.46742 5.48861 0 12.2591 0Z" fill="#99968F"/>
<path d="M39.1283 2.59763C40.2853 2.59763 41.3549 2.91292 42.3372 3.54352C43.3195 4.15237 44.1053 4.98953 44.6947 6.05502C45.2841 7.12051 45.5788 8.31646 45.5788 9.64288C45.5788 10.9693 45.2841 12.1761 44.6947 13.2634C44.1053 14.3288 43.3195 15.1878 42.3372 15.8401C41.3549 16.4707 40.2853 16.786 39.1283 16.786H32.8089L33.0708 16.2641V23.766C33.0708 24.2444 32.918 24.6467 32.6124 24.9728C32.3286 25.2773 31.9466 25.4295 31.4664 25.4295C31.008 25.4295 30.626 25.2773 30.3204 24.9728C30.0366 24.6467 29.8947 24.2444 29.8947 23.766V4.26109C29.8947 3.78271 30.0584 3.39131 30.3859 3.08688C30.7133 2.76071 31.1062 2.59763 31.5646 2.59763H39.1283ZM39.1283 13.6548C39.6959 13.6548 40.2089 13.4699 40.6673 13.1003C41.1475 12.7306 41.5295 12.2414 41.8133 11.6325C42.1189 11.0237 42.2717 10.3605 42.2717 9.64288C42.2717 8.92531 42.1189 8.27297 41.8133 7.68587C41.5295 7.09876 41.1475 6.63125 40.6673 6.28334C40.2089 5.91368 39.6959 5.72885 39.1283 5.72885H32.7434L33.0708 5.2396V14.0788L32.7761 13.6548H39.1283Z" fill="#99968F"/>
<path d="M51.7537 23.766C51.7537 24.2444 51.59 24.6467 51.2626 24.9728C50.957 25.2773 50.575 25.4295 50.1166 25.4295C49.6582 25.4295 49.2652 25.2773 48.9378 24.9728C48.6322 24.6467 48.4794 24.2444 48.4794 23.766V2.95641C48.4794 2.47803 48.6431 2.08663 48.9705 1.78221C49.298 1.45604 49.6909 1.29295 50.1493 1.29295C50.6295 1.29295 51.0116 1.45604 51.2953 1.78221C51.6009 2.08663 51.7537 2.47803 51.7537 2.95641V23.766Z" fill="#99968F"/>
<path d="M69.7572 8.01203C70.2375 8.01203 70.6304 8.17512 70.936 8.50129C71.2416 8.80571 71.3944 9.19712 71.3944 9.6755V23.766C71.3944 24.2444 71.2416 24.6467 70.936 24.9728C70.6304 25.2773 70.2375 25.4295 69.7572 25.4295C69.2988 25.4295 68.9059 25.2773 68.5785 24.9728C68.2729 24.6467 68.1201 24.2444 68.1201 23.766V21.4176L68.8077 21.5154C68.8077 21.9068 68.644 22.3417 68.3165 22.8201C68.0109 23.2985 67.5853 23.766 67.0395 24.2226C66.4938 24.6575 65.8498 25.0272 65.1077 25.3316C64.3655 25.6143 63.5687 25.7556 62.7174 25.7556C61.2112 25.7556 59.8578 25.3751 58.6572 24.614C57.4566 23.8312 56.5071 22.7658 55.8085 21.4176C55.11 20.0694 54.7608 18.5364 54.7608 16.8186C54.7608 15.0573 55.11 13.5134 55.8085 12.187C56.5071 10.8388 57.4457 9.78422 58.6245 9.02316C59.8251 8.2621 61.1566 7.88157 62.6192 7.88157C63.5578 7.88157 64.4201 8.03378 65.2059 8.3382C66.0136 8.64263 66.7121 9.03403 67.3015 9.51241C67.8909 9.9908 68.3383 10.5018 68.6439 11.0454C68.9714 11.5673 69.1351 12.0674 69.1351 12.5458L68.1201 12.6436V9.6755C68.1201 9.21886 68.2729 8.82746 68.5785 8.50129C68.9059 8.17512 69.2988 8.01203 69.7572 8.01203ZM63.0776 22.7549C64.1035 22.7549 65.0094 22.4939 65.7953 21.9721C66.5811 21.4502 67.1923 20.7435 67.6289 19.852C68.0655 18.9387 68.2838 17.9276 68.2838 16.8186C68.2838 15.6879 68.0655 14.6768 67.6289 13.7852C67.1923 12.8937 66.5811 12.187 65.7953 11.6651C65.0094 11.1433 64.1035 10.8823 63.0776 10.8823C62.0734 10.8823 61.1785 11.1433 60.3926 11.6651C59.6286 12.187 59.0174 12.8937 58.559 13.7852C58.1224 14.6768 57.9041 15.6879 57.9041 16.8186C57.9041 17.9276 58.1224 18.9387 58.559 19.852C59.0174 20.7435 59.6286 21.4502 60.3926 21.9721C61.1785 22.4939 62.0734 22.7549 63.0776 22.7549Z" fill="#99968F"/>
<path d="M83.8727 7.88157C85.4225 7.88157 86.6231 8.20774 87.4745 8.86007C88.3258 9.49067 88.9152 10.3496 89.2426 11.4368C89.5919 12.5023 89.7665 13.6983 89.7665 15.0247V23.766C89.7665 24.2444 89.6028 24.6467 89.2754 24.9728C88.9697 25.2773 88.5877 25.4295 88.1293 25.4295C87.6491 25.4295 87.2562 25.2773 86.9506 24.9728C86.645 24.6467 86.4922 24.2444 86.4922 23.766V15.0573C86.4922 14.2745 86.383 13.5787 86.1647 12.9698C85.9464 12.3392 85.5644 11.8391 85.0187 11.4694C84.4948 11.078 83.7526 10.8823 82.7922 10.8823C81.8972 10.8823 81.1113 11.078 80.4346 11.4694C79.7579 11.8391 79.2231 12.3392 78.8302 12.9698C78.4591 13.5787 78.2736 14.2745 78.2736 15.0573V23.766C78.2736 24.2444 78.1099 24.6467 77.7824 24.9728C77.4768 25.2773 77.0948 25.4295 76.6364 25.4295C76.1562 25.4295 75.7632 25.2773 75.4576 24.9728C75.152 24.6467 74.9992 24.2444 74.9992 23.766V9.93643C74.9992 9.45805 75.152 9.06665 75.4576 8.76222C75.7632 8.43606 76.1562 8.27297 76.6364 8.27297C77.0948 8.27297 77.4768 8.43606 77.7824 8.76222C78.1099 9.06665 78.2736 9.45805 78.2736 9.93643V11.763L77.6842 12.0891C77.837 11.6108 78.0989 11.1324 78.47 10.654C78.863 10.1539 79.3323 9.69724 79.878 9.28409C80.4237 8.8492 81.0349 8.51216 81.7116 8.27297C82.3883 8.01204 83.1087 7.88157 83.8727 7.88157Z" fill="#99968F"/>
<path d="M107.443 8.01203C107.923 8.01203 108.316 8.17512 108.622 8.50129C108.927 8.80571 109.08 9.19712 109.08 9.6755V23.766C109.08 24.2444 108.927 24.6467 108.622 24.9728C108.316 25.2773 107.923 25.4295 107.443 25.4295C106.984 25.4295 106.591 25.2773 106.264 24.9728C105.958 24.6467 105.806 24.2444 105.806 23.766V21.4176L106.493 21.5154C106.493 21.9068 106.33 22.3417 106.002 22.8201C105.697 23.2985 105.271 23.766 104.725 24.2226C104.179 24.6575 103.535 25.0272 102.793 25.3316C102.051 25.6143 101.254 25.7556 100.403 25.7556C98.8968 25.7556 97.5434 25.3751 96.3428 24.614C95.1422 23.8312 94.1927 22.7658 93.4941 21.4176C92.7956 20.0694 92.4464 18.5364 92.4464 16.8186C92.4464 15.0573 92.7956 13.5134 93.4941 12.187C94.1927 10.8388 95.1313 9.78422 96.3101 9.02316C97.5107 8.2621 98.8422 7.88157 100.305 7.88157C101.243 7.88157 102.106 8.03378 102.891 8.3382C103.699 8.64263 104.398 9.03403 104.987 9.51241C105.576 9.9908 106.024 10.5018 106.33 11.0454C106.657 11.5673 106.821 12.0674 106.821 12.5458L105.806 12.6436V9.6755C105.806 9.21886 105.958 8.82746 106.264 8.50129C106.591 8.17512 106.984 8.01203 107.443 8.01203ZM100.763 22.7549C101.789 22.7549 102.695 22.4939 103.481 21.9721C104.267 21.4502 104.878 20.7435 105.315 19.852C105.751 18.9387 105.969 17.9276 105.969 16.8186C105.969 15.6879 105.751 14.6768 105.315 13.7852C104.878 12.8937 104.267 12.187 103.481 11.6651C102.695 11.1433 101.789 10.8823 100.763 10.8823C99.759 10.8823 98.8641 11.1433 98.0782 11.6651C97.3142 12.187 96.703 12.8937 96.2446 13.7852C95.808 14.6768 95.5897 15.6879 95.5897 16.8186C95.5897 17.9276 95.808 18.9387 96.2446 19.852C96.703 20.7435 97.3142 21.4502 98.0782 21.9721C98.8641 22.4939 99.759 22.7549 100.763 22.7549Z" fill="#99968F"/>
</svg>
